# xmcd CD database file
# Copyright (C) 1993-1998 Ti Kan
# 
# Track frame offsets:
#     150
#     19075
#     38418
#     59833
#     78718
#     101593
#     125690
#     147053
#     164898
#     184518
#     201995
#     222213
#     239588
#     257288
#     278123
#     296955
#     313520
# 
# Disc length: 4445 seconds
# 
# Revision: 1
# Processed by: cddbd v1.4b41PL1 Copyright (c) Steve Scherf et al.
# Submitted via: DiscPlay 4.0.4
# 
DISCID=06115b11
DTITLE=Michael Bolton - Gold
DYEAR=1900
DGENRE=
TTITLE0=Bets Of My Life
TTITLE1=How Am I  Supposed To Live Without You
TTITLE2=Love is a Wonderful Thing
TTITLE3=To Love Somebody
TTITLE4=Said I Loved You... But I Lied
TTITLE5=Can I Touch You... There
TTITLE6=Go The Distance
TTITLE7=How Can We Be Lovers
TTITLE8=Time, Love And Tenderness
TTITLE9=Reach Out I'll Be There
TTITLE10=Soul Provider
TTITLE11=When I'm Back On My Feet Again
TTITLE12=When A Man Loves A Woman
TTITLE13=Missing You
TTITLE14=A Love So Beautiful
TTITLE15=Lean On Me
TTITLE16=Love Is Power
EXTD=
EXTT0=
EXTT1=
EXTT2=
EXTT3=
EXTT4=
EXTT5=
EXTT6=
EXTT7=
EXTT8=
EXTT9=
EXTT10=
EXTT11=
EXTT12=
EXTT13=
EXTT14=
EXTT15=
EXTT16=
PLAYORDER=
